<svg width="22" height="22" viewBox="0 0 22 22" fill="none" xmlns="http://www.w3.org/2000/svg">
<g clip-path="url(#clip0_11_49)">
<path d="M0.341736 21.6826H21.6582" stroke="#0091D3" stroke-miterlimit="10" stroke-linecap="round" stroke-linejoin="round"/>
<path d="M15.699 21.6826H8.11649C8.00969 21.6826 7.92426 21.598 7.92426 21.4923V0.507645C7.92426 0.401876 8.00969 0.317261 8.11649 0.317261L15.6777 4.16726C15.7845 4.16726 15.8699 4.25188 15.8699 4.35765V21.4711C15.8912 21.598 15.8058 21.6826 15.699 21.6826Z" stroke="#0091D3" stroke-miterlimit="10" stroke-linecap="round" stroke-linejoin="round"/>
<path d="M7.7534 21.6826H2.69126C2.58446 21.6826 2.52039 21.598 2.52039 21.5134V8.96916C2.52039 8.86339 2.60582 8.79993 2.69126 8.79993H7.73204C7.83883 8.79993 7.90291 8.88454 7.90291 8.96916V21.5134C7.92427 21.6192 7.83883 21.6826 7.7534 21.6826Z" stroke="#0091D3" stroke-miterlimit="10" stroke-linecap="round" stroke-linejoin="round"/>
<path d="M3.90875 4.78076V8.69422" stroke="#0091D3" stroke-miterlimit="10" stroke-linecap="round" stroke-linejoin="round"/>
<path d="M5.2757 6.15576V8.69422" stroke="#0091D3" stroke-miterlimit="10" stroke-linecap="round" stroke-linejoin="round"/>
<path d="M19.2874 21.6827H16.2544C16.1476 21.6827 16.0621 21.5981 16.0621 21.4923V12.5019C16.0621 12.3961 16.1476 12.3115 16.2544 12.3115H19.2874C19.3942 12.3115 19.4796 12.3961 19.4796 12.5019V21.4923C19.4796 21.5981 19.3942 21.6827 19.2874 21.6827Z" stroke="#0091D3" stroke-miterlimit="10" stroke-linecap="round" stroke-linejoin="round"/>
<path d="M10.3592 4.75952V19.8422" stroke="#0091D3" stroke-miterlimit="10" stroke-linecap="round" stroke-linejoin="round"/>
<path d="M12.5378 5.54224V6.81147" stroke="#0091D3" stroke-miterlimit="10" stroke-linecap="round" stroke-linejoin="round"/>
<path d="M12.5378 18.573V19.8422" stroke="#0091D3" stroke-miterlimit="10" stroke-linecap="round" stroke-linejoin="round"/>
<path d="M4.0155 10.6615H6.47181" stroke="#0091D3" stroke-miterlimit="10" stroke-linecap="round" stroke-linejoin="round"/>
<path d="M4.0155 12.7769H6.47181" stroke="#0091D3" stroke-miterlimit="10" stroke-linecap="round" stroke-linejoin="round"/>
<path d="M4.0155 14.8922H6.47181" stroke="#0091D3" stroke-miterlimit="10" stroke-linecap="round" stroke-linejoin="round"/>
<path d="M17.8136 14.5115H19.2233" stroke="#0091D3" stroke-miterlimit="10" stroke-linecap="round" stroke-linejoin="round"/>
<path d="M17.8136 16.6268H19.2233" stroke="#0091D3" stroke-miterlimit="10" stroke-linecap="round" stroke-linejoin="round"/>
<path d="M17.8136 18.7423H19.2233" stroke="#0091D3" stroke-miterlimit="10" stroke-linecap="round" stroke-linejoin="round"/>
<path d="M4.0155 17.0077H6.47181" stroke="#0091D3" stroke-miterlimit="10" stroke-linecap="round" stroke-linejoin="round"/>
<path d="M4.0155 19.123H6.47181" stroke="#0091D3" stroke-miterlimit="10" stroke-linecap="round" stroke-linejoin="round"/>
<path d="M12.5378 9.15955V17.3884" stroke="#0091D3" stroke-miterlimit="10" stroke-linecap="round" stroke-linejoin="round" stroke-dasharray="11.13 11.13"/>
</g>
<defs>
<clipPath id="clip0_11_49">
<rect width="22" height="22" fill="white"/>
</clipPath>
</defs>
</svg>
