<svg width="23" height="22" viewBox="0 0 23 22" fill="none" xmlns="http://www.w3.org/2000/svg">
<g clip-path="url(#clip0_11_73)">
<path d="M22.7586 3.27573C22.7586 4.37516 22.7586 5.4803 22.7586 6.58546C22.6874 6.69427 22.6401 6.82023 22.5452 6.90039C22.4149 7.00919 22.3971 7.12945 22.403 7.27833C22.4089 7.6219 22.4267 7.96547 22.3912 8.30904C22.3141 8.99046 21.8281 9.41419 20.9984 9.57452C20.9984 13.5084 20.9984 17.4423 20.9984 21.3991C21.431 21.3991 21.8518 21.4105 22.2726 21.3934C22.486 21.3877 22.646 21.4449 22.7586 21.6167C22.7586 21.7427 22.7586 21.8743 22.7586 22.0005C15.1724 22.0005 7.58621 22.0005 0 22.0005C0 21.8743 0 21.7427 0 21.6167C0.112608 21.5422 0.213362 21.4564 0.337824 21.4048C0.420798 21.3705 0.527479 21.3991 0.622306 21.3991C1.00162 21.3991 1.38685 21.3991 1.76616 21.3991C1.76616 17.4366 1.76616 13.5027 1.76616 9.57452C1.73653 9.56307 1.71282 9.55734 1.69504 9.55734C0.877156 9.4371 0.361531 8.86449 0.355602 8.06855C0.355602 7.77079 0.355602 7.46729 0.355602 7.16953C0.355602 7.11227 0.337824 7.04354 0.30819 6.99201C0.213362 6.84885 0.106681 6.71716 0.00592673 6.57974C0.00592673 5.4803 0.00592673 4.37516 0.00592673 3.27C0.183729 2.81763 0.533406 2.66875 1.01347 2.67448C3.6805 2.68593 6.34751 2.6802 9.01455 2.6802C9.10345 2.6802 9.19234 2.6802 9.28126 2.6802C9.31089 2.60005 9.32867 2.53132 9.35237 2.4626C9.54796 1.88426 9.7376 1.30592 9.93912 0.7333C10.028 0.469895 10.2295 0.366824 10.4429 0.469895C10.5614 0.527156 10.6207 0.498525 10.7155 0.435538C11.1482 0.154955 11.6045 -0.0397355 12.1439 0.00607396C12.3513 0.0232524 12.5587 -0.0111046 12.7662 0.0118001C12.9973 0.0404311 13.2403 0.0633358 13.4477 0.154955C14.1827 0.475621 14.6627 1.03106 14.8583 1.79264C14.9294 2.07323 14.9353 2.36526 14.9768 2.67448C15.0539 2.67448 15.1368 2.67448 15.2258 2.67448C17.4009 2.67448 19.5819 2.6802 21.757 2.66875C22.2311 2.67448 22.5808 2.82336 22.7586 3.27573ZM13.1573 21.3877C13.1573 21.2846 13.1573 21.1987 13.1573 21.1185C13.1573 18.5016 13.1573 15.879 13.1573 13.2622C13.1573 13.0561 13.1692 12.8499 13.1988 12.6438C13.43 11.0519 15.0124 9.80356 16.6778 9.90664C18.5447 10.0212 19.9079 11.4184 19.9138 13.2221C19.9138 15.8619 19.9138 18.5016 19.9138 21.1414C19.9138 21.2216 19.9138 21.3075 19.9138 21.3819C20.0501 21.3819 20.1509 21.3819 20.2694 21.3819C20.2694 21.2846 20.2694 21.1987 20.2694 21.1185C20.2694 17.3163 20.2635 13.5199 20.2812 9.71768C20.2812 9.39702 20.1568 9.2195 19.9019 9.08207C19.2085 9.71768 18.6455 9.71768 17.7683 9.08207C17.4779 9.36265 17.1401 9.55163 16.7134 9.55734C16.2807 9.55734 15.9429 9.35694 15.6347 9.07634C15.3324 9.37984 14.9887 9.56307 14.562 9.55734C14.1412 9.55734 13.8034 9.35694 13.5011 9.07634C13.1988 9.36838 12.861 9.55734 12.4343 9.55734C12.0016 9.55734 11.6638 9.35121 11.3615 9.07634C11.0593 9.37984 10.7096 9.56307 10.2888 9.55734C9.868 9.55734 9.53018 9.35694 9.23975 9.08207C8.45152 9.72341 7.96552 9.7234 7.09429 9.0878C6.80388 9.36838 6.46606 9.55734 6.03933 9.56307C5.60669 9.56307 5.26294 9.36265 4.96658 9.08207C4.66432 9.37984 4.32058 9.56307 3.89387 9.56307C3.47306 9.56307 3.13524 9.36838 2.85668 9.09926C2.53664 9.24241 2.47738 9.48291 2.47738 9.79786C2.48923 13.5771 2.4833 17.3564 2.4833 21.1357C2.4833 21.2273 2.4833 21.3132 2.4833 21.4105C6.05711 21.3877 9.58945 21.3877 13.1573 21.3877ZM19.2026 21.3877C19.2026 21.3017 19.2026 21.2273 19.2026 21.1586C19.2026 18.5016 19.2026 15.8504 19.2026 13.1935C19.2026 11.739 18.0172 10.5823 16.5415 10.5823C15.0598 10.5823 13.8745 11.739 13.8745 13.1878C13.8745 15.8447 13.8745 18.4959 13.8745 21.1529C13.8745 21.2273 13.8745 21.3017 13.8745 21.3819C14.1234 21.3819 14.3427 21.3819 14.5857 21.3819C14.5857 21.296 14.5857 21.2159 14.5857 21.1414C14.5857 20.168 14.5857 19.1945 14.5857 18.2211C14.5857 17.9176 14.7161 17.7916 15.0243 17.7916C16.0318 17.7916 17.0393 17.7916 18.0469 17.7916C18.361 17.7916 18.4973 17.9118 18.4973 18.2153C18.4973 19.1945 18.4973 20.1737 18.4973 21.1586C18.4973 21.233 18.4973 21.3075 18.4973 21.3877C18.7403 21.3877 18.9537 21.3877 19.2026 21.3877ZM9.94504 5.98421C9.57759 6.08729 9.22197 6.19036 8.8723 6.29343C8.71229 6.34497 8.55226 6.36786 8.41596 6.24189C8.27963 6.11591 8.29741 5.96703 8.34482 5.80669C8.41596 5.57765 8.47522 5.34288 8.54634 5.09092C8.42781 5.09092 8.34482 5.09092 8.25593 5.09092C6.15788 5.09092 4.06573 5.09092 1.96767 5.09092C1.89655 5.09092 1.8195 5.09665 1.74838 5.0852C1.55873 5.06801 1.45205 4.9535 1.43427 4.7817C1.41649 4.6042 1.51131 4.47821 1.68912 4.42668C1.77802 4.40378 1.87877 4.40378 1.9736 4.40378C4.14279 4.40378 6.31196 4.40378 8.48115 4.40378C8.57004 4.40378 8.65893 4.40378 8.75378 4.40378C8.85452 4.05448 8.95529 3.7281 9.05604 3.39024C8.99678 3.38453 8.97307 3.3788 8.94934 3.3788C6.2764 3.3788 3.60346 3.3788 0.930496 3.37307C0.746767 3.37307 0.711207 3.4475 0.711207 3.60211C0.717133 4.46105 0.711207 5.31996 0.717133 6.1789C0.717133 6.46521 0.717133 6.47093 1.0194 6.47093C3.9235 6.47093 6.82166 6.47093 9.72575 6.47093C9.79687 6.47093 9.868 6.46521 9.95097 6.45948C9.94504 6.2877 9.94504 6.14455 9.94504 5.98421ZM14.3308 4.16902C14.3664 4.38087 14.5205 4.40378 14.7279 4.40378C16.743 4.39806 18.7581 4.39806 20.7672 4.39806C20.8502 4.39806 20.9332 4.39233 21.0102 4.40378C21.2058 4.43241 21.3421 4.57556 21.3362 4.75308C21.3303 4.94204 21.1881 5.07374 20.9747 5.0852C20.9095 5.09092 20.8443 5.0852 20.7732 5.0852C18.5684 5.0852 16.3578 5.0852 14.153 5.0852C14.0641 5.0852 13.9811 5.0852 13.8863 5.0852C13.8863 5.55475 13.8863 6.0014 13.8863 6.45948C14.5205 6.45948 15.1428 6.45948 15.7651 6.45948C17.792 6.45948 19.8249 6.45948 21.8518 6.46521C22.0059 6.46521 22.0534 6.4194 22.0534 6.26479C22.0474 5.3715 22.0474 4.47821 22.0534 3.57922C22.0534 3.42461 22.0118 3.36162 21.8459 3.36162C19.5345 3.36734 17.2231 3.36162 14.9176 3.36734C14.8524 3.36734 14.7575 3.42461 14.722 3.4876C14.5797 3.70519 14.4671 3.92852 14.3308 4.16902ZM13.3411 4.26636C12.3691 3.32727 11.403 2.3939 10.4192 1.44335C10.0043 2.77182 9.58945 4.10602 9.15086 5.49749C10.6029 5.06801 11.9838 4.6672 13.3411 4.26636ZM17.7683 21.3819C17.7683 20.4142 17.7683 19.4637 17.7683 18.4959C16.9386 18.4959 16.1207 18.4959 15.3087 18.4959C15.3087 19.4637 15.3087 20.4199 15.3087 21.3819C16.1326 21.3819 16.9445 21.3819 17.7683 21.3819ZM11.1126 1.01388C12.0253 1.88999 12.9202 2.76036 13.8152 3.62503C14.4138 2.84054 14.3545 1.76401 13.6611 1.11695C12.9855 0.487074 11.8594 0.446991 11.1126 1.01388ZM13.1395 6.44802C13.1395 5.97848 13.1395 5.53757 13.1395 5.05085C12.2979 5.29707 11.486 5.53184 10.68 5.76088C10.68 6.0014 10.68 6.21898 10.68 6.44802C11.5038 6.44802 12.3157 6.44802 13.1395 6.44802ZM15.291 7.1638C14.805 7.1638 14.3427 7.1638 13.8685 7.1638C13.8685 7.536 13.8567 7.89102 13.8685 8.24605C13.8804 8.58389 14.2004 8.85876 14.5679 8.86449C14.9353 8.8702 15.2672 8.60681 15.285 8.26897C15.3028 7.90821 15.291 7.54172 15.291 7.1638ZM17.4246 7.1638C16.9327 7.1638 16.4763 7.1638 16.0022 7.1638C16.0022 7.54172 15.9903 7.90821 16.0081 8.26897C16.0259 8.60681 16.3578 8.8702 16.7252 8.86449C17.0867 8.85876 17.4127 8.58962 17.4246 8.24605C17.4364 7.89102 17.4246 7.536 17.4246 7.1638ZM20.2812 7.15807C20.2753 7.20388 20.2694 7.2268 20.2694 7.24396C20.2694 7.55891 20.2635 7.87386 20.2694 8.18306C20.2753 8.53808 20.542 8.81866 20.9036 8.85876C21.2651 8.89311 21.6325 8.66978 21.6681 8.32621C21.7096 7.94256 21.68 7.54745 21.68 7.15235C21.2058 7.15808 20.7495 7.15807 20.2812 7.15807ZM2.4833 7.15807C1.99731 7.15807 1.54095 7.15807 1.07274 7.15807C1.07274 7.51883 1.05496 7.86813 1.07866 8.21743C1.10237 8.561 1.44019 8.85303 1.77209 8.85876C2.10399 8.86449 2.45367 8.57816 2.47738 8.23459C2.50701 7.88529 2.4833 7.52456 2.4833 7.15807ZM3.20043 7.15807C3.20043 7.51883 3.18857 7.8624 3.20635 8.20597C3.22413 8.54954 3.5501 8.8473 3.88794 8.86449C4.21983 8.88165 4.57543 8.60108 4.60506 8.25751C4.64062 7.89675 4.61099 7.536 4.61099 7.1638C4.14279 7.15807 3.68642 7.15807 3.20043 7.15807ZM5.33406 7.15807C5.33406 7.51883 5.32221 7.85094 5.33998 8.18879C5.35776 8.54381 5.68373 8.85303 6.02155 8.86449C6.35344 8.87593 6.70906 8.60108 6.73869 8.25178C6.76832 7.89102 6.74462 7.53029 6.74462 7.15807C6.27047 7.15807 5.82003 7.15807 5.33406 7.15807ZM7.46767 7.15807C7.46767 7.51883 7.45581 7.8624 7.47359 8.20597C7.49137 8.54954 7.81736 8.8473 8.15518 8.86449C8.48707 8.88165 8.84267 8.60108 8.8723 8.25751C8.90786 7.89675 8.87823 7.536 8.87823 7.1638C8.41003 7.15807 7.95366 7.15807 7.46767 7.15807ZM9.6013 7.15807C9.6013 7.51883 9.58945 7.8624 9.60723 8.20024C9.625 8.55527 9.96282 8.85876 10.3066 8.85876C10.6385 8.86449 10.9822 8.57816 11.0119 8.22886C11.0415 7.87386 11.0178 7.51883 11.0178 7.15235C10.5436 7.15808 10.0873 7.15807 9.6013 7.15807ZM18.1476 7.15807C18.1417 7.20388 18.1358 7.22107 18.1358 7.24396C18.1358 7.53029 18.1299 7.81659 18.1358 8.1029C18.1417 8.50373 18.4262 8.83012 18.7996 8.86449C19.1492 8.89311 19.4871 8.63543 19.5345 8.23459C19.576 7.88529 19.5404 7.52456 19.5404 7.1638C19.0722 7.15807 18.6218 7.15807 18.1476 7.15807ZM11.7349 7.14662C11.7349 7.5131 11.7231 7.85094 11.7408 8.18306C11.7586 8.53808 12.0787 8.8473 12.4224 8.85876C12.7543 8.8702 13.1099 8.59535 13.1395 8.24605C13.1751 7.88529 13.1455 7.52456 13.1455 7.14089C13.0447 7.14089 12.9677 7.14089 12.8847 7.14089C12.5172 7.14662 12.1379 7.14662 11.7349 7.14662Z" fill="#0091D3"/>
<path d="M3.55605 17.797C3.55605 17.1099 3.55012 16.4513 3.55605 15.7928C3.56198 15.1286 3.53827 14.4586 3.60346 13.8001C3.79312 11.9792 5.47631 10.4388 7.361 10.2613C9.28719 10.0781 11.0533 11.1317 11.7705 12.8038C11.9839 13.3019 12.0846 13.8288 12.0846 14.3727C12.0846 15.4321 12.0846 16.4914 12.0846 17.5508C12.0846 17.6252 12.0846 17.7054 12.0846 17.8027C12.2209 17.8027 12.3276 17.797 12.4402 17.8027C12.6595 17.8199 12.7958 17.9516 12.7958 18.1692C12.8018 18.6101 12.8018 19.0568 12.7958 19.4977C12.7899 19.7382 12.6536 19.8584 12.3987 19.8584C11.8001 19.8641 11.2015 19.8584 10.597 19.8584C8.19074 19.8584 5.7845 19.8584 3.37824 19.8584C2.9219 19.8584 2.83893 19.7783 2.83893 19.3316C2.83893 18.988 2.83893 18.6445 2.83893 18.3009C2.83893 17.9058 2.93967 17.8027 3.34861 17.797C3.41382 17.797 3.46716 17.797 3.55605 17.797ZM11.3675 17.7855C11.3675 17.0927 11.3675 16.4227 11.3675 15.7528C10.3007 15.7528 9.24571 15.7528 8.19074 15.7528C8.19074 16.4399 8.19074 17.1099 8.19074 17.7855C9.25163 17.7855 10.3007 17.7855 11.3675 17.7855ZM7.45584 15.7528C6.38903 15.7528 5.33406 15.7528 4.27912 15.7528C4.27912 16.4399 4.27912 17.1099 4.27912 17.7855C5.34591 17.7855 6.40088 17.7855 7.45584 17.7855C7.45584 17.0984 7.45584 16.4284 7.45584 15.7528ZM12.0787 18.5013C9.222 18.5013 6.39495 18.5013 3.5679 18.5013C3.5679 18.7304 3.5679 18.9422 3.5679 19.1598C6.41273 19.1598 9.23978 19.1598 12.0787 19.1598C12.0787 18.9365 12.0787 18.7246 12.0787 18.5013ZM4.21984 15.0312C5.34591 15.0312 6.40088 15.0312 7.45584 15.0312C7.45584 14.4586 7.45584 13.9032 7.45584 13.3477C7.42028 13.342 7.4025 13.3306 7.3788 13.3306C6.44829 13.3306 5.51187 13.3306 4.58138 13.3249C4.43913 13.3249 4.39765 13.3936 4.38579 13.5024C4.32653 14.0063 4.27319 14.5102 4.21984 15.0312ZM8.19074 13.3306C8.19074 13.9204 8.19074 14.4758 8.19074 15.0312C9.25756 15.0312 10.3125 15.0312 11.4267 15.0312C11.3675 14.5044 11.3141 13.9948 11.2549 13.4852C11.243 13.3592 11.1719 13.3249 11.0474 13.3249C10.514 13.3306 9.98063 13.3249 9.44722 13.3249C9.03826 13.3306 8.6234 13.3306 8.19074 13.3306ZM10.8637 12.632C10.5081 11.8074 9.13311 10.9542 8.19667 10.9714C8.19667 11.5268 8.19667 12.0765 8.19667 12.632C9.09162 12.632 9.9747 12.632 10.8637 12.632ZM7.45584 12.6377C7.45584 12.0651 7.45584 11.5211 7.45584 10.9714C6.5372 10.9313 4.98439 11.9048 4.79473 12.6377C5.67783 12.6377 6.55498 12.6377 7.45584 12.6377Z" fill="#0091D3"/>
<path d="M16.5355 16.4285C16.0199 16.4285 15.4984 16.4285 14.9827 16.4285C14.716 16.4285 14.5797 16.3082 14.5797 16.0506C14.5797 15.0714 14.5738 14.0922 14.5797 13.113C14.5916 12.1052 15.4806 11.2749 16.5296 11.2749C17.5846 11.2749 18.4736 12.0995 18.4854 13.113C18.4973 14.0922 18.4914 15.0714 18.4854 16.0506C18.4854 16.3025 18.3491 16.4285 18.0824 16.4285C17.5727 16.4285 17.0571 16.4285 16.5355 16.4285ZM17.7801 15.7242C17.7801 14.871 17.7801 14.0407 17.7801 13.2161C17.7801 12.5003 17.2349 11.9506 16.5237 11.9563C15.8243 11.9678 15.2909 12.506 15.2909 13.2161C15.2909 13.9719 15.2909 14.7335 15.2909 15.4894C15.2909 15.5638 15.2909 15.644 15.2909 15.7242C16.1266 15.7242 16.9385 15.7242 17.7801 15.7242Z" fill="#0091D3"/>
<path d="M14.9176 17.4535C14.799 17.4535 14.6805 17.4592 14.562 17.4535C14.3604 17.442 14.2478 17.3332 14.2301 17.1443C14.2123 16.9668 14.3071 16.8122 14.4849 16.795C14.7694 16.7663 15.0598 16.7663 15.3443 16.8007C15.5221 16.8179 15.6169 16.9782 15.5932 17.15C15.5695 17.3218 15.4628 17.4363 15.2731 17.4478C15.1546 17.4592 15.0361 17.4535 14.9176 17.4535Z" fill="#0091D3"/>
</g>
<defs>
<clipPath id="clip0_11_73">
<rect width="22.7586" height="22" fill="white"/>
</clipPath>
</defs>
</svg>
