<svg width="22" height="22" viewBox="0 0 22 22" fill="none" xmlns="http://www.w3.org/2000/svg">
<path d="M10.3757 0.859317C10.1987 0.859317 10.0357 0.746223 9.97348 0.58075C9.91143 0.41575 9.9587 0.222649 10.0922 0.106676C10.2299 -0.012992 10.4318 -0.0329724 10.5901 0.0578205C10.743 0.14552 10.8288 0.325559 10.7993 0.499625C10.7647 0.703856 10.5837 0.859317 10.3757 0.859317Z" fill="#0091D3"/>
<path d="M18.1148 16.1171V13.7873H18.4203C18.6575 13.7873 18.85 13.5949 18.85 13.3577V11.3678C18.85 11.1305 18.6575 10.9381 18.4203 10.9381H18.1148V6.79568C18.8586 6.45833 19.3772 5.70874 19.3772 4.8403V3.70623C19.3772 3.70593 19.3756 3.66919 19.3756 3.66859C19.3703 3.60766 19.3523 3.55034 19.3242 3.49933L17.59 0.228379C17.5155 0.0878711 17.3694 0 17.2104 0H12.31C12.0727 0 11.8803 0.192371 11.8803 0.429688C11.8803 0.667004 12.0727 0.859375 12.31 0.859375H16.9518L18.2334 3.27654H2.50168L3.78323 0.859375H8.4251C8.66241 0.859375 8.85478 0.667004 8.85478 0.429688C8.85478 0.192371 8.66241 0 8.4251 0H3.52468C3.36561 0 3.21956 0.0878711 3.14505 0.228379L1.41088 3.49933C1.38282 3.55034 1.36481 3.60761 1.35949 3.66859C1.35944 3.66919 1.35781 3.70593 1.35781 3.70623V4.84034C1.35781 5.70879 1.8764 6.45842 2.62019 6.79572V10.9381H2.31485C2.07758 10.9381 1.88517 11.1305 1.88517 11.3678V13.3577C1.88517 13.595 2.07758 13.7874 2.31485 13.7874H2.62019V21.5624C2.62019 21.7997 2.8126 21.9921 3.04988 21.9921C3.28715 21.9921 3.47956 21.7997 3.47956 21.5624V19.9725H14.8778C15.2683 21.149 16.3793 22 17.6852 22C19.3157 22 20.6421 20.6735 20.6421 19.043C20.6421 17.5584 19.5424 16.3258 18.1148 16.1171ZM13.3191 12.928C13.2323 12.5137 13.0602 12.1305 12.8221 11.7975H17.9906V12.928H13.3191ZM10.4595 18.9294C10.4439 18.9665 10.4078 18.9906 10.3675 18.9906C10.3272 18.9906 10.2911 18.9665 10.2755 18.9294C10.2741 18.9258 10.2725 18.9223 10.2709 18.9188L9.14989 16.4349C9.49665 16.6438 9.91994 16.7601 10.3672 16.7601C10.8148 16.7601 11.2385 16.6436 11.5854 16.4343L10.4641 18.9188C10.4625 18.9223 10.461 18.9258 10.4595 18.9294ZM12.776 15.2814H11.7673C11.6338 15.2814 11.5079 15.3435 11.4265 15.4494C11.2127 15.7278 10.8068 15.9008 10.3672 15.9008C9.92763 15.9008 9.52166 15.7278 9.30785 15.4494C9.22651 15.3435 9.10061 15.2814 8.96706 15.2814H7.95901C7.77008 15.2814 7.61634 15.1277 7.61634 14.9387C7.61634 14.7727 7.73446 14.6309 7.89727 14.6015C8.12328 14.5607 8.27728 14.3493 8.24682 14.1217C8.2249 13.9583 8.21141 13.6964 8.21141 13.5474C8.21141 12.3585 9.17864 11.3912 10.3675 11.3912C11.5564 11.3912 12.5237 12.3585 12.5237 13.5474C12.5237 13.6965 12.5101 13.9583 12.4883 14.1216C12.4577 14.3493 12.6117 14.5607 12.8378 14.6015C13.0006 14.6309 13.1187 14.7727 13.1187 14.9387C13.1187 15.1276 12.965 15.2814 12.776 15.2814ZM2.74454 12.928V11.7975H7.91299C7.6749 12.1305 7.50281 12.5137 7.41602 12.928H2.74454ZM18.5179 4.13591V4.84034C18.5179 5.54967 17.9408 6.12674 17.2315 6.12674C16.5223 6.12674 15.9452 5.54967 15.9452 4.84034V4.13591H18.5179ZM15.0859 4.8403C15.0859 5.54963 14.5088 6.1267 13.7995 6.1267C13.0903 6.1267 12.5132 5.54963 12.5132 4.8403V4.13591H15.0859V4.8403ZM11.6539 4.8403C11.6539 5.54963 11.0768 6.1267 10.3675 6.1267C9.65826 6.1267 9.08119 5.54963 9.08119 4.8403V4.13591H11.6538V4.8403H11.6539ZM8.22185 4.8403C8.22185 5.54963 7.64483 6.1267 6.93554 6.1267C6.22626 6.1267 5.64923 5.54963 5.64923 4.8403V4.13591H8.22185V4.8403ZM2.21723 4.8403V4.13591H4.78985V4.84034C4.78985 5.54967 4.21283 6.12674 3.50354 6.12674C2.79426 6.12674 2.21723 5.54963 2.21723 4.8403ZM3.47956 6.9859C3.48756 6.98599 3.49551 6.98607 3.50354 6.98607C4.20432 6.98607 4.82771 6.64834 5.21954 6.12709C5.61137 6.64834 6.23476 6.98607 6.93554 6.98607C7.63632 6.98607 8.25971 6.64834 8.65154 6.12709C9.04337 6.64834 9.66676 6.98607 10.3676 6.98607C11.0684 6.98607 11.6918 6.64834 12.0836 6.12709C12.4754 6.64834 13.0988 6.98607 13.7996 6.98607C14.5004 6.98607 15.1238 6.64834 15.5156 6.12709C15.9074 6.64834 16.5308 6.98607 17.2316 6.98607C17.2396 6.98607 17.2475 6.98599 17.2555 6.9859V10.9381H11.8885C11.8851 10.9381 11.8817 10.9381 11.8783 10.9382C11.4338 10.6798 10.9177 10.5318 10.3676 10.5318C9.8175 10.5318 9.30136 10.6798 8.85685 10.9382C8.85341 10.9381 8.84997 10.9381 8.84653 10.9381H3.47956V6.9859ZM3.47956 13.7873H7.35822C7.35981 13.8221 7.36171 13.8577 7.36385 13.8936C6.99716 14.1023 6.75696 14.4961 6.75696 14.9387C6.75696 15.6015 7.29622 16.1407 7.95901 16.1407H8.07434L9.41574 19.1131H3.47956V13.7873ZM11.3193 19.1131L12.6608 16.1408H12.776C13.4388 16.1408 13.9781 15.6015 13.9781 14.9387C13.9781 14.4961 13.7379 14.1024 13.3712 13.8937C13.3734 13.8578 13.3753 13.8222 13.3769 13.7874H17.2555V16.1171C15.8279 16.3258 14.7282 17.5585 14.7282 19.043C14.7282 19.0664 14.7285 19.0898 14.729 19.1131H11.3193ZM17.6852 21.1406C16.5286 21.1406 15.5876 20.1997 15.5876 19.043C15.5876 17.8863 16.5286 16.9454 17.6852 16.9454C18.8418 16.9454 19.7828 17.8863 19.7828 19.043C19.7828 20.1997 18.8418 21.1406 17.6852 21.1406Z" fill="#0091D3"/>
</svg>
