<svg width="23" height="22" viewBox="0 0 23 22" fill="none" xmlns="http://www.w3.org/2000/svg">
<g clip-path="url(#clip0_11_32)">
<path d="M18.3426 17.9439C18.2265 17.9439 18.1104 17.8719 18.064 17.752L15.1849 10.4123C15.1385 10.2924 15.1617 10.1725 15.2546 10.0765C15.3474 9.98059 15.4635 9.9566 15.5796 10.0046L22.6845 13.0028C22.8006 13.0508 22.8702 13.1707 22.8702 13.2906C22.8702 13.4106 22.8006 13.5305 22.6845 13.5785L19.7357 14.7298L18.6212 17.752C18.5748 17.8479 18.4819 17.9439 18.3426 17.9439ZM15.9743 10.8441L18.3426 16.8165L19.2481 14.394C19.2714 14.322 19.341 14.2501 19.4107 14.2261L21.7557 13.2906L15.9743 10.8441Z" fill="#0091D3" stroke="#0091D3" stroke-width="0.50152" stroke-miterlimit="10"/>
<path d="M20.9431 0.0985107H1.76462C0.812658 0.0985107 0.0464478 0.89004 0.0464478 1.87345V15.5693C0.0464478 16.5527 0.812658 17.3442 1.76462 17.3442H8.38189V18.6395C8.38189 19.2391 7.91752 19.7188 7.33706 19.7188H7.24418C6.66372 19.7188 6.17613 20.2225 6.17613 20.8222C6.17613 21.4218 6.66372 21.9255 7.24418 21.9255H15.51C16.0904 21.9255 16.578 21.4218 16.578 20.8222C16.578 20.2225 16.0904 19.7188 15.51 19.7188H15.3939C14.8134 19.7188 14.349 19.2391 14.349 18.6395V17.3442H17.0656L16.8334 16.7446H1.76462C1.13772 16.7446 0.62691 16.2169 0.62691 15.5693V14.5619H15.9511L15.7189 13.9623H0.62691V1.84947C0.62691 1.20185 1.13772 0.674168 1.76462 0.674168H20.9431C21.57 0.674168 22.0808 1.20185 22.0808 1.84947V11.8755L22.6613 12.1154V1.84947C22.6613 0.89004 21.8951 0.0985107 20.9431 0.0985107ZM15.51 20.2945C15.7886 20.2945 15.9976 20.5104 15.9976 20.7982C15.9976 21.086 15.7886 21.3019 15.51 21.3019H7.24418C6.96556 21.3019 6.7566 21.086 6.7566 20.7982C6.7566 20.5104 6.96556 20.2945 7.24418 20.2945H15.51ZM14.1401 19.6948H8.59086C8.82304 19.407 8.96235 19.0232 8.96235 18.6155V17.3203H13.7686V18.6155C13.7686 19.0232 13.9079 19.383 14.1401 19.6948Z" fill="#0091D3" stroke="#0091D3" stroke-width="0.50152" stroke-miterlimit="10"/>
<path d="M22.0808 15.5453C22.0808 16.1929 21.57 16.7206 20.9431 16.7206H19.8286L19.5964 17.3202H20.9431C21.8951 17.3202 22.6613 16.5287 22.6613 15.5453V14.418L22.0808 14.6578V15.5453Z" fill="#0091D3" stroke="#0091D3" stroke-width="0.50152" stroke-miterlimit="10"/>
<path d="M8.38188 3.93628H7.73176C6.5244 3.93628 5.54922 4.94368 5.54922 6.19094C5.54922 6.69464 5.71175 7.17435 5.99038 7.55812C5.99038 7.6061 5.99038 7.65407 6.0136 7.70204L6.64049 10.8921C6.68693 11.156 6.96555 11.3479 7.24418 11.3479H8.86947C9.17131 11.3479 9.42672 11.156 9.47315 10.8921L10.1001 7.70204C10.1001 7.65407 10.1001 7.6061 10.1233 7.55812C10.4019 7.17435 10.5644 6.71862 10.5644 6.19094C10.5644 4.96767 9.58924 3.93628 8.38188 3.93628ZM9.54281 7.58211L8.91591 10.7482C8.91591 10.7482 8.89269 10.7482 8.86947 10.7482H7.24418C7.22096 10.7482 7.22096 10.7482 7.19774 10.7482L6.57084 7.58211C6.54762 7.46218 6.57084 7.39022 6.59406 7.36624C6.61728 7.34225 6.61728 7.34225 6.64049 7.34225H9.47315C9.49637 7.34225 9.49637 7.34225 9.51959 7.36624C9.54281 7.39022 9.56603 7.46218 9.54281 7.58211ZM9.84465 6.86254C9.72856 6.76659 9.61246 6.71862 9.44993 6.71862H6.64049C6.50118 6.71862 6.36187 6.76659 6.24578 6.86254C6.15291 6.67065 6.10647 6.43079 6.10647 6.21492C6.10647 5.30347 6.82624 4.55991 7.70855 4.55991H8.35866C9.24097 4.55991 9.96074 5.30347 9.96074 6.21492C9.98396 6.43079 9.93752 6.67065 9.84465 6.86254Z" fill="#0091D3" stroke="#0091D3" stroke-width="0.50152" stroke-miterlimit="10"/>
<path d="M16.7405 7.55812C17.0192 7.17435 17.1817 6.71862 17.1817 6.19094C17.1817 4.94368 16.2065 3.93628 14.9992 3.93628H14.349C13.1417 3.93628 12.1665 4.94368 12.1665 6.19094C12.1665 6.69464 12.329 7.17435 12.6077 7.55812C12.6077 7.6061 12.6077 7.65407 12.6309 7.70204L13.2578 10.8921C13.3042 11.156 13.5828 11.3479 13.8615 11.3479H14.6973L14.4651 10.7482H13.8615C13.8382 10.7482 13.8382 10.7482 13.815 10.7482L13.1881 7.58211C13.1649 7.46218 13.1881 7.39022 13.2113 7.36624C13.2346 7.34225 13.2346 7.34225 13.2578 7.34225H16.0904C16.1137 7.34225 16.1136 7.34225 16.1369 7.36624C16.1601 7.39022 16.1833 7.48617 16.1601 7.58211L15.8118 9.26111H15.835L16.3691 9.47698L16.7173 7.70204C16.7405 7.65407 16.7405 7.6061 16.7405 7.55812ZM16.4851 6.86254C16.3691 6.76659 16.253 6.71862 16.0904 6.71862H13.2578C13.1185 6.71862 12.9792 6.76659 12.8631 6.86254C12.7702 6.67065 12.7237 6.43079 12.7237 6.21492C12.7237 5.30347 13.4435 4.55991 14.3258 4.55991H14.9759C15.8582 4.55991 16.578 5.30347 16.578 6.21492C16.6012 6.43079 16.5548 6.67065 16.4851 6.86254Z" fill="#0091D3" stroke="#0091D3" stroke-width="0.50152" stroke-miterlimit="10"/>
</g>
<defs>
<clipPath id="clip0_11_32">
<rect width="22.9167" height="22" fill="white"/>
</clipPath>
</defs>
</svg>
