<svg width="2" height="11" viewBox="0 0 2 11" fill="none" xmlns="http://www.w3.org/2000/svg">
<path d="M1.25244 2.05273C1.64795 2.05273 1.95996 1.73633 1.95996 1.34521C1.95996 0.949707 1.64795 0.637695 1.25244 0.637695C0.856934 0.637695 0.544922 0.949707 0.544922 1.34521C0.544922 1.73633 0.856934 2.05273 1.25244 2.05273ZM1.25244 6.05273C1.64795 6.05273 1.95996 5.73633 1.95996 5.34521C1.95996 4.94971 1.64795 4.6377 1.25244 4.6377C0.856934 4.6377 0.544922 4.94971 0.544922 5.34521C0.544922 5.73633 0.856934 6.05273 1.25244 6.05273ZM1.25244 10.0527C1.64795 10.0527 1.95996 9.73633 1.95996 9.34521C1.95996 8.94971 1.64795 8.6377 1.25244 8.6377C0.856934 8.6377 0.544922 8.94971 0.544922 9.34521C0.544922 9.73633 0.856934 10.0527 1.25244 10.0527Z" fill="black"/>
</svg>
