<svg width="25" height="25" viewBox="0 0 25 25" fill="none" xmlns="http://www.w3.org/2000/svg">
<g clip-path="url(#clip0_11_83)">
<path d="M23.8775 20.685H23.17V15.1729C23.17 14.9702 23.0057 14.8059 22.803 14.8059C22.6003 14.8059 22.4361 14.9702 22.4361 15.1729V20.685H9.6415V15.2657C9.6415 15.0631 9.47725 14.8988 9.27456 14.8988H4.45303C4.25034 14.8988 4.08608 15.0631 4.08608 15.2657V20.685H2.34736V13.472L22.4361 8.29946V13.7051C22.4361 13.9078 22.6003 14.0721 22.803 14.0721C23.0057 14.0721 23.17 13.9078 23.17 13.7051V7.82607C23.17 7.71265 23.1175 7.60557 23.0278 7.53608C22.9381 7.46655 22.8213 7.44258 22.7116 7.47075L20.9171 7.93276L20.576 4.15034C20.576 4.15024 20.5759 4.1501 20.5759 4.15L20.4185 2.40405C20.4014 2.21494 20.2429 2.07007 20.053 2.07007H17.6305C17.4406 2.07007 17.2821 2.21494 17.265 2.40405L17.1076 4.1501V4.15015L16.6677 9.02695L14.5825 9.56387L14.2155 5.49482C14.2155 5.49473 14.2155 5.49468 14.2155 5.49463L14.0581 3.74863C14.041 3.55952 13.8825 3.41465 13.6926 3.41465H11.27C11.0802 3.41465 10.9216 3.55952 10.9046 3.74863L10.7471 5.49458C10.7471 5.49468 10.7471 5.49478 10.7471 5.49492L10.2802 10.6717L8.24785 11.195L7.85498 6.83945C7.85498 6.83935 7.85498 6.83931 7.85498 6.83921L7.69751 5.09326C7.68047 4.90415 7.52192 4.75928 7.33208 4.75928H4.90957C4.71973 4.75928 4.56118 4.90415 4.54414 5.09326L4.20674 8.83379C4.18853 9.03564 4.3374 9.21401 4.53921 9.23223C4.74116 9.25049 4.91943 9.10156 4.93765 8.89976L5.08701 7.2438H7.15474L7.52783 11.3805L4.64702 12.1223L4.80571 10.3631C4.82393 10.1612 4.67505 9.98286 4.47324 9.96465C4.27134 9.94668 4.09302 10.0954 4.0748 10.2971L3.89268 12.3165L1.88916 12.8323C1.72705 12.8741 1.61372 13.0203 1.61372 13.1876V20.685H1.12251C0.503564 20.685 0 21.1885 0 21.8075C0 22.4264 0.503564 22.93 1.12251 22.93H11.9019C12.1046 22.93 12.2688 22.7657 12.2688 22.563C12.2688 22.3604 12.1046 22.1961 11.9019 22.1961H1.12251C0.908203 22.1961 0.733838 22.0218 0.733838 21.8075C0.733838 21.5932 0.908154 21.4188 1.12251 21.4188H23.8775C24.089 21.4188 24.2662 21.5959 24.2662 21.8075C24.2662 22.019 24.089 22.1961 23.8775 22.1961H13.3696C13.1669 22.1961 13.0027 22.3604 13.0027 22.563C13.0027 22.7657 13.1669 22.93 13.3696 22.93H23.8775C24.4964 22.93 25 22.4264 25 21.8075C25 21.1885 24.4964 20.685 23.8775 20.685ZM5.15303 6.50981L5.24473 5.49307H6.99668L7.08838 6.50981H5.15303ZM19.7177 2.80395L19.8094 3.8207H17.8741L17.9658 2.80395H19.7177ZM17.8079 4.55454H19.8756L20.197 8.11816L17.4221 8.83267L17.8079 4.55454ZM13.3572 4.14849L13.4489 5.16523H11.5135L11.6052 4.14849H13.3572ZM11.4473 5.89912H13.5151L13.8624 9.74927L11.0344 10.4774L11.4473 5.89912ZM4.81992 15.6327H8.90762V20.685H4.81992V15.6327Z" fill="#0091D3"/>
<path d="M13.894 13.214C13.894 13.0114 13.7297 12.847 13.5271 12.847H12.0616C11.8589 12.847 11.6947 13.0114 11.6947 13.214V15.044C11.6947 15.2466 11.8589 15.4109 12.0616 15.4109H13.5271C13.7297 15.4109 13.894 15.2466 13.894 15.044V13.214ZM13.1602 14.6771H12.4286V13.5809H13.1602V14.6771Z" fill="#0091D3"/>
<path d="M13.5271 16.5928H12.0616C11.8589 16.5928 11.6947 16.7571 11.6947 16.9597V18.7897C11.6947 18.9923 11.8589 19.1566 12.0616 19.1566H13.5271C13.7297 19.1566 13.894 18.9923 13.894 18.7897V16.9597C13.894 16.7571 13.7297 16.5928 13.5271 16.5928ZM13.1602 18.4228H12.4286V17.3267H13.1602V18.4228Z" fill="#0091D3"/>
<path d="M17.6085 13.214C17.6085 13.0114 17.4443 12.847 17.2416 12.847H15.7761C15.5734 12.847 15.4092 13.0114 15.4092 13.214V15.044C15.4092 15.2466 15.5734 15.4109 15.7761 15.4109H17.2416C17.4443 15.4109 17.6085 15.2466 17.6085 15.044V13.214ZM16.8747 14.6771H16.1431V13.5809H16.8747V14.6771Z" fill="#0091D3"/>
<path d="M17.2416 16.5928H15.7762C15.5735 16.5928 15.4092 16.7571 15.4092 16.9597V18.7897C15.4092 18.9923 15.5735 19.1566 15.7762 19.1566H17.2416C17.4443 19.1566 17.6086 18.9923 17.6086 18.7897V16.9597C17.6085 16.7571 17.4443 16.5928 17.2416 16.5928ZM16.8747 18.4228H16.1431V17.3267H16.8747V18.4228Z" fill="#0091D3"/>
<path d="M21.3231 13.214C21.3231 13.0114 21.1588 12.847 20.9562 12.847H19.4907C19.288 12.847 19.1238 13.0114 19.1238 13.214V15.044C19.1238 15.2466 19.288 15.4109 19.4907 15.4109H20.9562C21.1588 15.4109 21.3231 15.2466 21.3231 15.044V13.214ZM20.5892 14.6771H19.8577V13.5809H20.5892V14.6771Z" fill="#0091D3"/>
<path d="M20.9562 16.5928H19.4907C19.288 16.5928 19.1238 16.7571 19.1238 16.9597V18.7897C19.1238 18.9923 19.288 19.1566 19.4907 19.1566H20.9562C21.1588 19.1566 21.3231 18.9923 21.3231 18.7897V16.9597C21.3231 16.7571 21.1588 16.5928 20.9562 16.5928ZM20.5892 18.4228H19.8577V17.3267H20.5892V18.4228Z" fill="#0091D3"/>
</g>
<defs>
<clipPath id="clip0_11_83">
<rect width="25" height="25" fill="white"/>
</clipPath>
</defs>
</svg>
